<svg width="25.000000" height="25.000000" viewBox="0 0 25 25" fill="none" xmlns="http://www.w3.org/2000/svg" xmlns:xlink="http://www.w3.org/1999/xlink">
	<desc>
			Created with Pixso.
	</desc>
	<defs>
		<clipPath id="clip352_137">
			<rect id="jam:shopping-cart" rx="-0.500000" width="24.000000" height="24.000000" transform="matrix(-1 0 0 1 25.5 0.5)" fill="white" fill-opacity="0"/>
		</clipPath>
	</defs>
	<rect id="jam:shopping-cart" rx="-0.500000" width="24.000000" height="24.000000" transform="matrix(-1 0 0 1 25.5 0.5)" fill="#FFFFFF" fill-opacity="0"/>
	<g clip-path="url(#clip352_137)">
		<path id="Vector" d="M14.97 21C15.53 21 15.57 20.4 15.96 20C16.36 19.6 16.95 19.57 16.95 19C16.95 18.44 16.36 17.41 15.96 17.01C15.57 16.62 15.53 17.01 14.97 17.01C14.41 17.01 13.38 16.62 12.99 17.01C12.59 17.41 12.99 18.44 12.99 19C12.99 19.57 12.59 19.6 12.99 20C13.38 20.4 14.41 21 14.97 21ZM7.03 21C7.59 21 8.62 20.4 9.02 20C9.41 19.6 9.02 19.57 9.02 19C9.02 18.44 9.41 17.41 9.02 17.01C8.62 16.62 7.59 17.01 7.03 17.01C6.48 17.01 6.44 16.62 6.04 17.01C5.65 17.41 5.05 18.44 5.05 19C5.05 19.57 5.65 19.6 6.04 20C6.44 20.4 6.48 21 7.03 21ZM20.92 6.07C21.18 6.06 21.73 6.26 21.91 6.07C22.1 5.88 21.91 5.34 21.91 5.07C21.91 4.81 22.1 4.27 21.91 4.08C21.73 3.89 21.18 4.09 20.92 4.08L19.93 4.08C18.98 4.08 18.15 5.14 17.95 6.07L15.96 12.04C15.76 12.97 15.92 13.03 14.97 13.03L7.03 13.03L5.05 7.06L14.97 7.06C15.23 7.05 15.78 7.25 15.96 7.06C16.14 6.87 15.96 6.33 15.96 6.07C15.96 5.81 16.14 5.26 15.96 5.07C15.78 4.88 15.23 5.08 14.97 5.07L5.05 5.07C4.74 5.07 4.33 4.94 4.06 5.07C3.78 5.21 3.26 5.82 3.07 6.07C2.88 6.31 3.13 6.76 3.07 7.06C3 7.37 2.99 7.76 3.07 8.06L5.05 14.03C5.16 14.47 4.7 14.75 5.05 15.02C5.4 15.3 6.58 15.02 7.03 15.02L14.97 15.02C15.89 15.02 16.24 14.61 16.95 14.03C17.67 13.45 17.75 12.94 17.95 12.04L19.93 6.07L20.92 6.07Z" fill="#FFFFFF" fill-opacity="1.000000" fill-rule="nonzero"/>
	</g>
</svg>
