<?xml version="1.0" encoding="UTF-8" standalone="no"?>
<svg
   width="193"
   height="33"
   viewBox="0 0 193 33"
   fill="none"
   version="1.1"
   id="svg19"
   sodipodi:docname="logo1.svg"
   inkscape:version="1.2.2 (732a01da63, 2022-12-09)"
   xmlns:inkscape="http://www.inkscape.org/namespaces/inkscape"
   xmlns:sodipodi="http://sodipodi.sourceforge.net/DTD/sodipodi-0.dtd"
   xmlns="http://www.w3.org/2000/svg"
   xmlns:svg="http://www.w3.org/2000/svg">
  <defs
     id="defs23" />
  <sodipodi:namedview
     id="namedview21"
     pagecolor="#ffffff"
     bordercolor="#999999"
     borderopacity="1"
     inkscape:showpageshadow="0"
     inkscape:pageopacity="0"
     inkscape:pagecheckerboard="0"
     inkscape:deskcolor="#d1d1d1"
     showgrid="false"
     inkscape:zoom="6.3523316"
     inkscape:cx="96.5"
     inkscape:cy="16.529364"
     inkscape:window-width="1366"
     inkscape:window-height="745"
     inkscape:window-x="-8"
     inkscape:window-y="-8"
     inkscape:window-maximized="1"
     inkscape:current-layer="svg19" />
  <path
     d="M 0.564,26 V 0.799998 H 5.172 V 18.692 L 18.708,0.799998 h 4.356 V 26 H 18.456 V 8.144 L 4.92,26 Z m 29.0616,0 V 6.776 h 4.5 v 7.812 h 9.684 V 6.776 h 4.5 V 26 h -4.5 v -7.596 h -9.684 V 26 Z m 28.7108,0 V 9.512 l 1.044,1.08 h -7.812 V 6.776 h 18 v 3.816 h -7.776 l 1.044,-1.08 V 26 Z m 22.6164,0.252 c -2.136,0 -4.008,-0.42 -5.616,-1.26 -1.584,-0.864 -2.82,-2.04 -3.708,-3.528 -0.864,-1.488 -1.296,-3.18 -1.296,-5.076 0,-1.92 0.42,-3.612 1.26,-5.076 0.864,-1.488 2.04,-2.652 3.528,-3.492 1.512,-0.84 3.228,-1.26 5.148,-1.26 1.872,0 3.54,0.408 5.004,1.224 1.464,0.816 2.616,1.968 3.456,3.456 0.84,1.488 1.26,3.24 1.26,5.256 0,0.192 -0.012,0.408 -0.036,0.648 0,0.24 -0.012,0.468 -0.036,0.684 h -16.02 V 14.84 h 13.644 l -1.764,0.936 c 0.024,-1.104 -0.204,-2.076 -0.684,-2.916 -0.48,-0.84 -1.14,-1.5 -1.98,-1.98 -0.816,-0.48 -1.764,-0.72 -2.844,-0.72 -1.104,0 -2.076,0.24 -2.916,0.72 -0.816,0.48 -1.464,1.152 -1.944,2.016 -0.456,0.84 -0.684,1.836 -0.684,2.988 v 0.72 c 0,1.152 0.264,2.172 0.792,3.06 0.528,0.888 1.272,1.572 2.232,2.052 0.96,0.48 2.064,0.72 3.312,0.72 1.08,0 2.052,-0.168 2.916,-0.504 0.864,-0.336 1.632,-0.864 2.304,-1.584 l 2.412,2.772 c -0.864,1.008 -1.956,1.788 -3.276,2.34 -1.296,0.528 -2.784,0.792 -4.464,0.792 z m 24.6142,0 c -1.56,0 -2.988,-0.36 -4.284,-1.08 -1.272,-0.72 -2.2923,-1.8 -3.0603,-3.24 -0.744,-1.464 -1.116,-3.312 -1.116,-5.544 0,-2.256 0.36,-4.104 1.08,-5.544 0.744,-1.44 1.752,-2.508 3.0243,-3.204 1.272,-0.72 2.724,-1.08 4.356,-1.08 1.896,0 3.564,0.408 5.004,1.224 1.464,0.816 2.616,1.956 3.456,3.42 0.864,1.464 1.296,3.192 1.296,5.184 0,1.992 -0.432,3.732 -1.296,5.22 -0.84,1.464 -1.992,2.604 -3.456,3.42 -1.44,0.816 -3.108,1.224 -5.004,1.224 z M 94.9107,32.984 V 6.776 h 4.284 v 4.536 l -0.144,5.112 0.36,5.112 V 32.984 Z M 105.063,22.4 c 1.08,0 2.04,-0.24 2.88,-0.72 0.864,-0.48 1.548,-1.176 2.052,-2.088 0.504,-0.912 0.756,-1.98 0.756,-3.204 0,-1.248 -0.252,-2.316 -0.756,-3.204 -0.504,-0.912 -1.188,-1.608 -2.052,-2.088 -0.84,-0.48 -1.8,-0.72 -2.88,-0.72 -1.08,0 -2.052,0.24 -2.916,0.72 -0.864,0.48 -1.548,1.176 -2.052,2.088 -0.5043,0.888 -0.7563,1.956 -0.7563,3.204 0,1.224 0.252,2.292 0.7563,3.204 0.504,0.912 1.188,1.608 2.052,2.088 0.864,0.48 1.836,0.72 2.916,0.72 z m 24.386,-9.288 c 2.472,0 4.356,0.552 5.652,1.656 1.296,1.104 1.944,2.664 1.944,4.68 0,2.088 -0.72,3.72 -2.16,4.896 -1.44,1.152 -3.468,1.716 -6.084,1.692 l -9,-0.036 V 6.776 h 4.5 v 6.3 z m -1.044,9.612 c 1.32,0.024 2.328,-0.252 3.024,-0.828 0.696,-0.576 1.044,-1.416 1.044,-2.52 0,-1.104 -0.348,-1.896 -1.044,-2.376 -0.672,-0.504 -1.68,-0.768 -3.024,-0.792 l -4.104,-0.036 v 6.516 z m 21.56,3.528 c -2.136,0 -4.008,-0.42 -5.616,-1.26 -1.584,-0.864 -2.82,-2.04 -3.708,-3.528 -0.864,-1.488 -1.296,-3.18 -1.296,-5.076 0,-1.92 0.42,-3.612 1.26,-5.076 0.864,-1.488 2.04,-2.652 3.528,-3.492 1.512,-0.84 3.228,-1.26 5.148,-1.26 1.872,0 3.54,0.408 5.004,1.224 1.464,0.816 2.616,1.968 3.456,3.456 0.84,1.488 1.26,3.24 1.26,5.256 0,0.192 -0.012,0.408 -0.036,0.648 0,0.24 -0.012,0.468 -0.036,0.684 h -16.02 V 14.84 h 13.644 l -1.764,0.936 c 0.024,-1.104 -0.204,-2.076 -0.684,-2.916 -0.48,-0.84 -1.14,-1.5 -1.98,-1.98 -0.816,-0.48 -1.764,-0.72 -2.844,-0.72 -1.104,0 -2.076,0.24 -2.916,0.72 -0.816,0.48 -1.464,1.152 -1.944,2.016 -0.456,0.84 -0.684,1.836 -0.684,2.988 v 0.72 c 0,1.152 0.264,2.172 0.792,3.06 0.528,0.888 1.272,1.572 2.232,2.052 0.96,0.48 2.064,0.72 3.312,0.72 1.08,0 2.052,-0.168 2.916,-0.504 0.864,-0.336 1.632,-0.864 2.304,-1.584 l 2.412,2.772 c -0.864,1.008 -1.956,1.788 -3.276,2.34 -1.296,0.528 -2.784,0.792 -4.464,0.792 z m 24.613,0 c -1.56,0 -2.988,-0.36 -4.284,-1.08 -1.272,-0.72 -2.292,-1.8 -3.06,-3.24 -0.744,-1.464 -1.116,-3.312 -1.116,-5.544 0,-2.256 0.36,-4.104 1.08,-5.544 0.744,-1.44 1.752,-2.508 3.024,-3.204 1.272,-0.72 2.724,-1.08 4.356,-1.08 1.896,0 3.564,0.408 5.004,1.224 1.464,0.816 2.616,1.956 3.456,3.42 0.864,1.464 1.296,3.192 1.296,5.184 0,1.992 -0.432,3.732 -1.296,5.22 -0.84,1.464 -1.992,2.604 -3.456,3.42 -1.44,0.816 -3.108,1.224 -5.004,1.224 z m -10.656,6.732 V 6.776 h 4.284 v 4.536 l -0.144,5.112 0.36,5.112 V 32.984 Z M 174.074,22.4 c 1.08,0 2.04,-0.24 2.88,-0.72 0.864,-0.48 1.548,-1.176 2.052,-2.088 0.504,-0.912 0.756,-1.98 0.756,-3.204 0,-1.248 -0.252,-2.316 -0.756,-3.204 -0.504,-0.912 -1.188,-1.608 -2.052,-2.088 -0.84,-0.48 -1.8,-0.72 -2.88,-0.72 -1.08,0 -2.052,0.24 -2.916,0.72 -0.864,0.48 -1.548,1.176 -2.052,2.088 -0.504,0.888 -0.756,1.956 -0.756,3.204 0,1.224 0.252,2.292 0.756,3.204 0.504,0.912 1.188,1.608 2.052,2.088 0.864,0.48 1.836,0.72 2.916,0.72 z m 15.791,3.852 c -0.816,0 -1.512,-0.276 -2.088,-0.828 -0.576,-0.576 -0.864,-1.296 -0.864,-2.16 0,-0.912 0.288,-1.632 0.864,-2.16 0.576,-0.552 1.272,-0.828 2.088,-0.828 0.816,0 1.512,0.276 2.088,0.828 0.576,0.528 0.864,1.248 0.864,2.16 0,0.864 -0.288,1.584 -0.864,2.16 -0.576,0.552 -1.272,0.828 -2.088,0.828 z"
     fill="#000000"
     id="path17"
     style="fill:#ffffff" />
</svg>
