<svg width="193" height="33" viewBox="0 0 193 33" fill="none" xmlns="http://www.w3.org/2000/svg">
<path d="M0.564 26V0.799998H5.172V18.692L18.708 0.799998H23.064V26H18.456V8.144L4.92 26H0.564ZM29.6256 26V6.776H34.1256V14.588H43.8096V6.776H48.3096V26H43.8096V18.404H34.1256V26H29.6256ZM58.3364 26V9.512L59.3804 10.592H51.5684V6.776H69.5684V10.592H61.7924L62.8364 9.512V26H58.3364ZM80.9528 26.252C78.8168 26.252 76.9448 25.832 75.3368 24.992C73.7528 24.128 72.5168 22.952 71.6288 21.464C70.7648 19.976 70.3328 18.284 70.3328 16.388C70.3328 14.468 70.7528 12.776 71.5928 11.312C72.4568 9.824 73.6328 8.66 75.1208 7.82C76.6328 6.98 78.3488 6.56 80.2688 6.56C82.1408 6.56 83.8088 6.968 85.2728 7.784C86.7368 8.6 87.8888 9.752 88.7288 11.24C89.5688 12.728 89.9888 14.48 89.9888 16.496C89.9888 16.688 89.9768 16.904 89.9528 17.144C89.9528 17.384 89.9408 17.612 89.9168 17.828H73.8968V14.84H87.5408L85.7768 15.776C85.8008 14.672 85.5728 13.7 85.0928 12.86C84.6128 12.02 83.9528 11.36 83.1128 10.88C82.2968 10.4 81.3488 10.16 80.2688 10.16C79.1648 10.16 78.1928 10.4 77.3528 10.88C76.5368 11.36 75.8888 12.032 75.4088 12.896C74.9528 13.736 74.7248 14.732 74.7248 15.884V16.604C74.7248 17.756 74.9888 18.776 75.5168 19.664C76.0448 20.552 76.7888 21.236 77.7488 21.716C78.7088 22.196 79.8128 22.436 81.0608 22.436C82.1408 22.436 83.1128 22.268 83.9768 21.932C84.8408 21.596 85.6088 21.068 86.2808 20.348L88.6928 23.12C87.8288 24.128 86.7368 24.908 85.4168 25.46C84.1208 25.988 82.6328 26.252 80.9528 26.252ZM105.567 26.252C104.007 26.252 102.579 25.892 101.283 25.172C100.011 24.452 98.9907 23.372 98.2227 21.932C97.4787 20.468 97.1067 18.62 97.1067 16.388C97.1067 14.132 97.4667 12.284 98.1867 10.844C98.9307 9.404 99.9387 8.336 101.211 7.64C102.483 6.92 103.935 6.56 105.567 6.56C107.463 6.56 109.131 6.968 110.571 7.784C112.035 8.6 113.187 9.74 114.027 11.204C114.891 12.668 115.323 14.396 115.323 16.388C115.323 18.38 114.891 20.12 114.027 21.608C113.187 23.072 112.035 24.212 110.571 25.028C109.131 25.844 107.463 26.252 105.567 26.252ZM94.9107 32.984V6.776H99.1947V11.312L99.0507 16.424L99.4107 21.536V32.984H94.9107ZM105.063 22.4C106.143 22.4 107.103 22.16 107.943 21.68C108.807 21.2 109.491 20.504 109.995 19.592C110.499 18.68 110.751 17.612 110.751 16.388C110.751 15.14 110.499 14.072 109.995 13.184C109.491 12.272 108.807 11.576 107.943 11.096C107.103 10.616 106.143 10.376 105.063 10.376C103.983 10.376 103.011 10.616 102.147 11.096C101.283 11.576 100.599 12.272 100.095 13.184C99.5907 14.072 99.3387 15.14 99.3387 16.388C99.3387 17.612 99.5907 18.68 100.095 19.592C100.599 20.504 101.283 21.2 102.147 21.68C103.011 22.16 103.983 22.4 105.063 22.4ZM129.449 13.112C131.921 13.112 133.805 13.664 135.101 14.768C136.397 15.872 137.045 17.432 137.045 19.448C137.045 21.536 136.325 23.168 134.885 24.344C133.445 25.496 131.417 26.06 128.801 26.036L119.801 26V6.776H124.301V13.076L129.449 13.112ZM128.405 22.724C129.725 22.748 130.733 22.472 131.429 21.896C132.125 21.32 132.473 20.48 132.473 19.376C132.473 18.272 132.125 17.48 131.429 17C130.757 16.496 129.749 16.232 128.405 16.208L124.301 16.172V22.688L128.405 22.724ZM149.965 26.252C147.829 26.252 145.957 25.832 144.349 24.992C142.765 24.128 141.529 22.952 140.641 21.464C139.777 19.976 139.345 18.284 139.345 16.388C139.345 14.468 139.765 12.776 140.605 11.312C141.469 9.824 142.645 8.66 144.133 7.82C145.645 6.98 147.361 6.56 149.281 6.56C151.153 6.56 152.821 6.968 154.285 7.784C155.749 8.6 156.901 9.752 157.741 11.24C158.581 12.728 159.001 14.48 159.001 16.496C159.001 16.688 158.989 16.904 158.965 17.144C158.965 17.384 158.953 17.612 158.929 17.828H142.909V14.84H156.553L154.789 15.776C154.813 14.672 154.585 13.7 154.105 12.86C153.625 12.02 152.965 11.36 152.125 10.88C151.309 10.4 150.361 10.16 149.281 10.16C148.177 10.16 147.205 10.4 146.365 10.88C145.549 11.36 144.901 12.032 144.421 12.896C143.965 13.736 143.737 14.732 143.737 15.884V16.604C143.737 17.756 144.001 18.776 144.529 19.664C145.057 20.552 145.801 21.236 146.761 21.716C147.721 22.196 148.825 22.436 150.073 22.436C151.153 22.436 152.125 22.268 152.989 21.932C153.853 21.596 154.621 21.068 155.293 20.348L157.705 23.12C156.841 24.128 155.749 24.908 154.429 25.46C153.133 25.988 151.645 26.252 149.965 26.252ZM174.578 26.252C173.018 26.252 171.59 25.892 170.294 25.172C169.022 24.452 168.002 23.372 167.234 21.932C166.49 20.468 166.118 18.62 166.118 16.388C166.118 14.132 166.478 12.284 167.198 10.844C167.942 9.404 168.95 8.336 170.222 7.64C171.494 6.92 172.946 6.56 174.578 6.56C176.474 6.56 178.142 6.968 179.582 7.784C181.046 8.6 182.198 9.74 183.038 11.204C183.902 12.668 184.334 14.396 184.334 16.388C184.334 18.38 183.902 20.12 183.038 21.608C182.198 23.072 181.046 24.212 179.582 25.028C178.142 25.844 176.474 26.252 174.578 26.252ZM163.922 32.984V6.776H168.206V11.312L168.062 16.424L168.422 21.536V32.984H163.922ZM174.074 22.4C175.154 22.4 176.114 22.16 176.954 21.68C177.818 21.2 178.502 20.504 179.006 19.592C179.51 18.68 179.762 17.612 179.762 16.388C179.762 15.14 179.51 14.072 179.006 13.184C178.502 12.272 177.818 11.576 176.954 11.096C176.114 10.616 175.154 10.376 174.074 10.376C172.994 10.376 172.022 10.616 171.158 11.096C170.294 11.576 169.61 12.272 169.106 13.184C168.602 14.072 168.35 15.14 168.35 16.388C168.35 17.612 168.602 18.68 169.106 19.592C169.61 20.504 170.294 21.2 171.158 21.68C172.022 22.16 172.994 22.4 174.074 22.4ZM189.865 26.252C189.049 26.252 188.353 25.976 187.777 25.424C187.201 24.848 186.913 24.128 186.913 23.264C186.913 22.352 187.201 21.632 187.777 21.104C188.353 20.552 189.049 20.276 189.865 20.276C190.681 20.276 191.377 20.552 191.953 21.104C192.529 21.632 192.817 22.352 192.817 23.264C192.817 24.128 192.529 24.848 191.953 25.424C191.377 25.976 190.681 26.252 189.865 26.252Z" fill="black"/>
</svg>
