<svg width="19.000000" height="19.000000" viewBox="0 0 19 19" fill="none" xmlns="http://www.w3.org/2000/svg" xmlns:xlink="http://www.w3.org/1999/xlink">
	<desc>
			Created with Pixso.
	</desc>
	<defs>
		<clipPath id="clip352_123">
			<rect id="gg:search" rx="-0.500000" width="18.000000" height="18.000000" transform="translate(0.500000 0.500000)" fill="white" fill-opacity="0"/>
		</clipPath>
	</defs>
	<rect id="gg:search" rx="-0.500000" width="18.000000" height="18.000000" transform="translate(0.500000 0.500000)" fill="#FFFFFF" fill-opacity="0"/>
	<g clip-path="url(#clip352_123)">
		<path id="Vector" d="M13.97 10.98C14.96 9.7 16.12 8.59 15.97 6.98C15.82 5.38 15.18 4.06 13.97 2.99C12.77 1.93 10.59 0.95 8.98 1C7.37 1.05 6.13 1.85 4.99 2.99C3.85 4.13 3.05 5.37 3 6.98C2.95 8.6 3.93 10.76 4.99 11.97C6.06 13.18 7.38 13.82 8.98 13.97C10.59 14.12 11.7 12.96 12.98 11.97L16.97 15.96C17.07 15.96 17.87 16 17.96 15.96C18 15.87 17.96 15.07 17.96 14.97L13.97 10.98ZM12.98 3.99C13.42 4.43 13.73 5.41 13.97 5.99C14.22 6.56 13.97 6.36 13.97 6.98C13.98 7.61 14.21 8.4 13.97 8.98C13.73 9.56 13.42 10.53 12.98 10.98C12.53 11.42 11.56 11.73 10.98 11.97C10.4 12.21 9.61 11.98 8.98 11.97C8.36 11.97 8.56 12.22 7.99 11.97C7.41 11.73 6.43 11.42 5.99 10.98C5.11 10.08 4.99 8.24 4.99 6.98C5 5.73 5.1 4.88 5.99 3.99C6.88 3.1 7.73 3 8.98 2.99C10.24 2.99 12.08 3.11 12.98 3.99Z" fill="#FFFFFF" fill-opacity="1.000000" fill-rule="evenodd"/>
		<path id="Vector" d="M16.18 7.25Q16.18 7.11 16.17 6.97Q16.05 5.71 15.55 4.7Q15.51 4.63 15.48 4.57Q14.98 3.61 14.11 2.84Q13.64 2.43 13.01 2.05Q12.39 1.68 11.71 1.39Q10.99 1.1 10.32 0.94Q9.59 0.78 8.98 0.8Q8.56 0.81 8.15 0.89Q7.41 1.04 6.72 1.41Q5.8 1.9 4.85 2.85Q3.9 3.8 3.41 4.72Q3.05 5.39 2.9 6.11Q2.81 6.54 2.8 6.98Q2.78 7.59 2.94 8.32Q3.1 8.99 3.39 9.71Q3.68 10.39 4.05 11.01Q4.43 11.64 4.84 12.11Q5.62 12.98 6.58 13.49Q6.64 13.52 6.7 13.55Q7.71 14.05 8.97 14.17Q9.11 14.18 9.25 14.18Q10.08 14.18 10.91 13.74Q11.3 13.53 11.75 13.2Q12.02 13 12.55 12.57Q12.79 12.37 12.96 12.24L16.88 16.16L16.97 16.16Q16.99 16.16 17.12 16.17Q17.45 16.18 17.62 16.18Q17.95 16.19 18.04 16.15L18.12 16.12L18.15 16.04Q18.19 15.95 18.18 15.62Q18.18 15.45 18.17 15.12Q18.16 14.99 18.16 14.97L18.16 14.88L14.24 10.96Q14.37 10.79 14.58 10.54Q15.01 10.01 15.21 9.74Q15.54 9.29 15.74 8.91Q16.18 8.08 16.18 7.25ZM13.97 10.98C14.12 10.78 14.27 10.6 14.42 10.41C15.28 9.36 16.1 8.35 15.97 6.98C15.82 5.38 15.18 4.06 13.97 2.99C12.77 1.93 10.59 0.95 8.98 1C7.37 1.05 6.13 1.85 4.99 2.99C3.85 4.13 3.05 5.37 3 6.98C2.95 8.6 3.93 10.76 4.99 11.97C6.06 13.18 7.38 13.82 8.98 13.97C10.35 14.1 11.36 13.28 12.42 12.42C12.6 12.27 12.79 12.12 12.98 11.97L16.97 15.96C16.99 15.96 17.05 15.97 17.12 15.97L17.13 15.97C17.39 15.98 17.89 16 17.96 15.96C18 15.89 17.98 15.39 17.97 15.13C17.97 15.05 17.96 14.99 17.96 14.97L13.97 10.98ZM12.98 3.99C13.42 4.43 13.73 5.41 13.97 5.99C14.12 6.32 14.09 6.39 14.05 6.52C14.01 6.61 13.97 6.72 13.97 6.98C13.97 7.19 14 7.41 14.03 7.63C14.08 8.1 14.13 8.59 13.97 8.98C13.73 9.56 13.42 10.53 12.98 10.98C12.53 11.42 11.56 11.73 10.98 11.97C10.59 12.14 10.1 12.08 9.63 12.03C9.41 12 9.19 11.97 8.98 11.97C8.72 11.97 8.61 12.01 8.52 12.05C8.39 12.09 8.32 12.12 7.99 11.97C7.41 11.73 6.43 11.42 5.99 10.98C5.11 10.08 4.99 8.24 4.99 6.98C5 5.73 5.1 4.88 5.99 3.99C6.88 3.1 7.73 3 8.98 2.99C10.24 2.99 12.08 3.11 12.98 3.99ZM13.63 5.66Q13.74 5.94 13.79 6.06Q13.87 6.27 13.88 6.35Q13.88 6.38 13.86 6.45Q13.82 6.56 13.8 6.65Q13.77 6.79 13.77 6.98Q13.77 7.2 13.83 7.65Q13.88 8.12 13.88 8.33Q13.88 8.68 13.79 8.9Q13.74 9.01 13.65 9.26Q13.42 9.86 13.28 10.14Q13.05 10.62 12.83 10.83Q12.62 11.05 12.15 11.28Q11.86 11.42 11.26 11.65Q11.01 11.74 10.9 11.79Q10.68 11.88 10.33 11.88Q10.12 11.88 9.65 11.83Q9.2 11.77 8.98 11.77Q8.79 11.77 8.65 11.8Q8.56 11.82 8.45 11.86Q8.38 11.88 8.35 11.88Q8.27 11.87 8.06 11.79Q7.94 11.74 7.65 11.63Q7.07 11.4 6.79 11.27Q6.34 11.04 6.13 10.84Q5.18 9.87 5.19 6.98Q5.19 6.47 5.23 6.13Q5.26 5.72 5.35 5.4Q5.44 5.09 5.6 4.82Q5.61 4.79 5.63 4.76Q5.83 4.44 6.13 4.13Q6.44 3.82 6.76 3.63Q6.79 3.62 6.82 3.6Q7.09 3.44 7.4 3.35Q7.72 3.26 8.13 3.23Q8.47 3.19 8.98 3.19Q11.87 3.18 12.84 4.13Q13.04 4.34 13.27 4.8Q13.4 5.07 13.63 5.66Z" fill="#FFFFFF" fill-opacity="1.000000" fill-rule="evenodd"/>
	</g>
</svg>
