<svg width="24.000504" height="14.000000" viewBox="0 0 24.0005 14" fill="none" xmlns="http://www.w3.org/2000/svg" xmlns:xlink="http://www.w3.org/1999/xlink">
	<desc>
			Created with Pixso.
	</desc>
	<defs/>
	<path id="Vector" d="M23.45 0.94C23.61 0.4 23.45 0 22.65 0L20.03 0C19.36 0 19.05 0.34 18.88 0.72C18.88 0.72 17.55 3.92 15.66 6C15.04 6.6 14.77 6.79 14.43 6.79C14.27 6.79 14.01 6.6 14.01 6.05L14.01 0.94C14.01 0.29 13.83 0 13.27 0L9.15 0C8.73 0 8.48 0.3 8.48 0.59C8.48 1.21 9.42 1.35 9.52 3.1L9.52 6.9C9.52 7.73 9.37 7.88 9.03 7.88C8.14 7.88 5.98 4.67 4.69 1C4.44 0.28 4.19 0 3.52 0L0.9 0C0.15 0 0 0.34 0 0.72C0 1.41 0.88 4.8 4.14 9.28C6.31 12.34 9.37 14 12.15 14C13.82 14 14.02 13.63 14.02 12.99L14.02 10.68C14.02 9.94 14.18 9.8 14.71 9.8C15.1 9.8 15.77 9.99 17.33 11.46C19.11 13.21 19.4 14 20.4 14L23.03 14C23.78 14 24.15 13.63 23.94 12.9C23.7 12.18 22.85 11.12 21.72 9.88C21.11 9.17 20.19 8.4 19.91 8.02C19.52 7.53 19.63 7.31 19.91 6.87C19.91 6.87 23.11 2.45 23.44 0.94L23.45 0.94Z" fill="#888888" fill-opacity="1.000000" fill-rule="evenodd"/>
</svg>
