<?xml version="1.0" encoding="UTF-8" standalone="no"?>
<svg
   width="19.000000"
   height="18.000000"
   viewBox="0 0 19 18"
   fill="none"
   version="1.1"
   id="svg4254"
   sodipodi:docname="YDzenB.svg"
   inkscape:version="1.2.2 (732a01da63, 2022-12-09)"
   xmlns:inkscape="http://www.inkscape.org/namespaces/inkscape"
   xmlns:sodipodi="http://sodipodi.sourceforge.net/DTD/sodipodi-0.dtd"
   xmlns="http://www.w3.org/2000/svg"
   xmlns:svg="http://www.w3.org/2000/svg">
  <sodipodi:namedview
     id="namedview4256"
     pagecolor="#ffffff"
     bordercolor="#999999"
     borderopacity="1"
     inkscape:showpageshadow="0"
     inkscape:pageopacity="0"
     inkscape:pagecheckerboard="0"
     inkscape:deskcolor="#d1d1d1"
     showgrid="false"
     inkscape:zoom="31.388889"
     inkscape:cx="9.4938053"
     inkscape:cy="9.0159292"
     inkscape:window-width="1366"
     inkscape:window-height="745"
     inkscape:window-x="-8"
     inkscape:window-y="-8"
     inkscape:window-maximized="1"
     inkscape:current-layer="svg4254" />
  <desc
     id="desc4249">
			Created with Pixso.
	</desc>
  <defs
     id="defs4251" />
  <path
     id="Vector"
     d="M11.33 10.73C9.83 12.19 9.73 14.01 9.6 18C13.52 18 16.23 17.98 17.62 16.7C18.98 15.37 19 12.68 19 9.09C14.79 9.22 12.87 9.32 11.33 10.73ZM0 9.09C0 12.68 0.01 15.37 1.37 16.7C2.76 17.98 5.47 18 9.39 18C9.26 14.01 9.16 12.19 7.66 10.73C6.12 9.32 4.2 9.21 0 9.09ZM9.39 0C5.48 0 2.76 0.01 1.37 1.29C0.01 2.62 0 5.31 0 8.9C4.2 8.77 6.12 8.67 7.66 7.26C9.16 5.8 9.26 3.98 9.39 0ZM11.33 7.26C9.83 5.8 9.73 3.98 9.6 0C13.52 0 16.23 0.01 17.62 1.29C18.98 2.62 19 5.31 19 8.9C14.79 8.77 12.87 8.67 11.33 7.26Z"
     fill="#888888"
     fill-opacity="1.000000"
     fill-rule="nonzero"
     style="fill:#000000;fill-opacity:1" />
</svg>
